<svg width="70" height="70" viewBox="0 0 70 70" fill="none" xmlns="http://www.w3.org/2000/svg">
<path d="M58.3334 42C58.3259 52.3578 52.3665 61.7894 43.0151 66.2433C42.8284 66.3494 43.3079 66.0858 41.7434 67.025C39.2089 68.4852 36.273 69.0944 33.3667 68.7633C18.6395 67.898 7.37765 55.2984 8.16398 40.5668C8.95031 25.8351 21.4894 14.5059 36.2251 15.2133C38.6638 15.4719 40.9965 16.3472 43.0034 17.7566C48.3923 20.3131 52.7734 24.5956 55.4517 29.925V29.9366C57.3712 33.6665 58.3598 37.8053 58.3334 42Z" fill="#FFDC00"/>
<path d="M61.8334 42C61.8333 41.8863 61.8216 41.7729 61.7984 41.6616C61.8282 41.7718 61.84 41.886 61.8334 42Z" fill="#FFDC00"/>
<path d="M35.8051 68.81C35.8576 68.81 35.9089 68.7995 35.9602 68.7983C35.9544 68.7983 35.8237 68.81 35.8051 68.81Z" fill="#F29C1F"/>
<path d="M61.7983 41.6616C61.81 41.6966 61.81 41.7316 61.8217 41.7549C61.7119 27.5058 50.4607 15.8393 36.225 15.2133C40.9543 15.8767 45.1744 18.5302 47.8217 22.5049C54.9383 31.5629 56.1272 49.4468 48.2067 60.9699C45.1185 65.2668 41.2522 68.3386 35.9567 68.7983C50.0326 68.3046 61.3238 56.9981 61.7983 42.9216C61.8375 42.5025 61.8375 42.0807 61.7983 41.6616Z" fill="#FF5722"/>
<path d="M61.7983 41.6616C61.81 41.6966 61.81 41.7316 61.8217 41.7549C61.7119 27.5058 50.4607 15.8393 36.225 15.2133C38.6961 15.4884 41.0567 16.3873 43.085 17.8254C52.3529 22.1969 58.2815 31.5078 58.3217 41.7549C58.31 41.7316 58.31 41.6966 58.2983 41.6616C58.3375 42.0807 58.3375 42.5025 58.2983 42.9216C57.943 52.8545 52.1277 61.7778 43.1842 66.1138C41.0627 67.6467 38.5645 68.5742 35.9567 68.7971C50.0321 68.3035 61.3232 56.9977 61.7983 42.9216C61.8375 42.5025 61.8375 42.0807 61.7983 41.6616Z" fill="#D84315"/>
<path d="M55.4634 54.0634C52.7787 59.391 48.3999 63.6754 43.015 66.2433C45.4141 64.5266 47.4385 62.3394 48.965 59.815C50.9729 56.5344 49.5682 57.8317 51.6017 56.665C52.4475 56.1774 53.018 55.8647 53.8417 55.2884C54.1625 55.0749 55.286 54.2407 55.4634 54.0634Z" fill="#FF5722"/>
<path d="M40.11 60.3283C43.6537 59.8753 47.1032 58.8633 50.33 57.33C47.3095 63.539 41.9032 68.8333 35 68.8333C37.0183 68.8333 38.8267 65.5666 40.11 60.3283Z" fill="#F29C1F"/>
<path d="M55.4517 29.9249C54.5945 29.2275 53.6944 28.5846 52.7567 27.9999C49.6755 26.0854 50.7512 27.3863 49.7117 25.4799C48.9804 24.1243 48.125 22.8394 47.1567 21.6416C45.965 20.1548 44.5663 18.8465 43.0034 17.7566C48.3923 20.313 52.7733 24.5956 55.4517 29.9249Z" fill="#FF5722"/>
<path d="M35 68.8333C28.1062 68.8333 22.7174 63.6043 19.67 57.33C22.8968 58.8633 26.3463 59.8753 29.89 60.3283C31.1734 65.5666 32.9817 68.8333 35 68.8333Z" fill="#FFDC00"/>
<path d="M40.11 60.3283C43.6537 59.8753 47.1032 58.8633 50.33 57.33C47.3095 63.539 41.9032 68.8333 35 68.8333C37.0183 68.8333 38.8267 65.5666 40.11 60.3283Z" fill="#FF9801"/>
<path d="M50.33 26.67C47.1032 25.1366 43.6537 24.1246 40.11 23.6716C39.4578 21.0105 37.7288 15.1666 35 15.1666C41.909 15.1666 47.2978 20.4306 50.33 26.67Z" fill="#FF9801"/>
<path d="M35 15.1666C32.9817 15.1666 31.1734 18.4333 29.89 23.6716C26.3463 24.1246 22.8968 25.1366 19.67 26.67C22.7337 20.3618 28.133 15.1666 35 15.1666Z" fill="#FFDC00"/>
<path d="M40.1101 60.3282C37.3334 71.6752 32.6667 71.6671 29.8901 60.3282C33.2818 60.7798 36.7184 60.7798 40.1101 60.3282Z" fill="#F3D55B"/>
<path d="M40.1101 23.6716C36.7184 23.2201 33.2818 23.2201 29.8901 23.6716C32.6667 12.3246 37.3334 12.3328 40.1101 23.6716Z" fill="#F3D55B"/>
<path d="M19.6701 57.33C13.3677 54.2687 8.16675 48.8705 8.16675 42C8.16675 44.0183 11.4334 45.8267 16.6717 47.11C17.1247 50.6537 18.1367 54.1032 19.6701 57.33Z" fill="#FFEB3A"/>
<path d="M41.7784 48.7783C41.5424 52.6678 40.9844 56.531 40.11 60.3283C36.7183 60.7799 33.2817 60.7799 29.89 60.3283C29.0156 56.531 28.4576 52.6678 28.2217 48.7783C32.7358 49.0735 37.2643 49.0735 41.7784 48.7783Z" fill="#FFDC00"/>
<path d="M53.3283 47.11C52.8753 50.6537 51.8633 54.1032 50.33 57.33C47.1032 58.8633 43.6537 59.8753 40.11 60.3283C40.9844 56.531 41.5424 52.6678 41.7783 48.7783C45.6678 48.5424 49.531 47.9844 53.3283 47.11Z" fill="#FF5722"/>
<path d="M61.8217 42.1866C61.7132 45.616 60.4043 48.8985 58.1234 51.4616C57.3088 52.3997 56.4192 53.2698 55.4634 54.0633C56.8156 51.4023 57.7034 48.5299 58.0884 45.57C59.5584 44.8945 61.6432 43.7966 61.8217 42.1866Z" fill="#F57C00"/>
<path d="M58.0884 45.5699C57.7034 48.5299 56.8157 51.4023 55.4634 54.0633C53.887 55.3506 52.1639 56.4471 50.3301 57.3299C51.8634 54.1032 52.8754 50.6537 53.3284 47.1099C54.9551 46.7296 56.5473 46.2145 58.0884 45.5699Z" fill="#FF9801"/>
<path d="M19.6701 26.6699C18.1367 29.8967 17.1247 33.3462 16.6717 36.8899C11.4334 38.1733 8.16675 39.9816 8.16675 41.9999C8.16675 35.1073 13.3946 29.7173 19.6701 26.6699Z" fill="#FFEB3A"/>
<path d="M41.7784 35.2217C37.2643 34.9265 32.7358 34.9265 28.2217 35.2217C28.4576 31.3322 29.0156 27.4689 29.89 23.6717C33.2817 23.2201 36.7183 23.2201 40.11 23.6717C40.9844 27.4689 41.5424 31.3322 41.7784 35.2217Z" fill="#FFDC00"/>
<path d="M53.3283 36.8899C49.531 36.0156 45.6678 35.4575 41.7783 35.2216C41.5424 31.3321 40.9844 27.4689 40.11 23.6716C43.6537 24.1246 47.1032 25.1366 50.33 26.67C51.8633 29.8967 52.8753 33.3462 53.3283 36.8899Z" fill="#FF5722"/>
<path d="M61.7984 41.615C61.4729 40.145 59.465 39.0262 58.0884 38.43C57.7061 35.4747 56.8223 32.6064 55.475 29.9484C56.2082 30.5652 56.9091 31.2194 57.575 31.9084C58.4472 32.8402 59.214 33.8653 59.8617 34.965C60.7248 36.4188 61.3214 38.0149 61.6234 39.6784C61.7438 40.3643 61.8101 41.0587 61.8217 41.755C61.8063 41.71 61.7984 41.6627 61.7984 41.615Z" fill="#F57C00"/>
<path d="M58.0884 38.4299C56.5479 37.7837 54.9556 37.2685 53.3284 36.8899C52.8754 33.3462 51.8634 29.8967 50.3301 26.6699C52.1568 27.5544 53.8753 28.6466 55.4517 29.9249V29.9366C55.4582 29.9366 55.4634 29.9418 55.4634 29.9483C56.8172 32.6045 57.7051 35.4734 58.0884 38.4299Z" fill="#FF9801"/>
<path d="M61.8334 42C61.8333 41.8863 61.8216 41.7729 61.7984 41.6616C61.8282 41.7718 61.84 41.886 61.8334 42Z" fill="#FF9801"/>
<path d="M61.8334 41.9999C61.8334 43.6753 59.6039 44.8734 58.0884 45.5699C58.415 43.2011 58.415 40.7987 58.0884 38.4299C59.6039 39.0833 61.8334 40.3503 61.8334 41.9999Z" fill="#D84315"/>
<path d="M58.0884 38.43C58.415 40.7988 58.415 43.2012 58.0884 45.57C56.5447 46.2079 54.9531 46.7228 53.3284 47.11C53.7799 43.7183 53.7799 40.2817 53.3284 36.89C54.9555 37.2686 56.5478 37.7838 58.0884 38.43Z" fill="#FF5722"/>
<path d="M61.8334 42C61.8333 41.8863 61.8216 41.7729 61.7984 41.6616C61.8282 41.7718 61.84 41.886 61.8334 42Z" fill="#FF5722"/>
<path d="M53.3284 47.11C49.5311 47.9844 45.6679 48.5424 41.7784 48.7783C42.0736 44.2643 42.0736 39.7357 41.7784 35.2217C45.6679 35.4576 49.5311 36.0156 53.3284 36.89C53.7799 40.2817 53.7799 43.7183 53.3284 47.11Z" fill="#FFDC00"/>
<path d="M41.7784 48.7783C37.2643 49.0735 32.7358 49.0735 28.2217 48.7783C27.9265 44.2642 27.9265 39.7357 28.2217 35.2216C32.7358 34.9265 37.2643 34.9265 41.7784 35.2216C42.0735 39.7357 42.0735 44.2642 41.7784 48.7783Z" fill="#FF9801"/>
<path d="M28.2217 48.7783C24.3322 48.5424 20.469 47.9844 16.6717 47.11C16.2202 43.7183 16.2202 40.2817 16.6717 36.89C20.469 36.0156 24.3322 35.4576 28.2217 35.2217C27.9265 39.7357 27.9265 44.2643 28.2217 48.7783Z" fill="#FFEB3A"/>
<path d="M16.6717 47.11C5.32474 44.3333 5.3329 39.6667 16.6717 36.89C16.2202 40.2817 16.2202 43.7183 16.6717 47.11Z" fill="#FFDC00"/>
<path d="M35.0001 11.6666C33.7135 11.6615 32.6719 10.6198 32.6667 9.33329V2.33329C32.6667 1.68896 33.1891 1.16663 33.8334 1.16663H36.1668C36.8111 1.16663 37.3334 1.68896 37.3334 2.33329V9.33329C37.3334 10.622 36.2887 11.6666 35.0001 11.6666Z" fill="#7F8E94"/>
<path d="M5.83337 9.33329C11.6667 9.33329 12.8334 1.16663 12.8334 1.16663C12.8334 1.16663 14 9.33329 19.8334 9.33329C14 9.33329 12.8334 17.5 12.8334 17.5C12.8334 17.5 11.6667 9.33329 5.83337 9.33329Z" fill="#FFEB3A"/>
<path d="M58.3334 62.7083C62.7084 62.7083 63.5834 56.5833 63.5834 56.5833C63.5834 56.5833 64.4584 62.7083 68.8334 62.7083C64.4584 62.7083 63.5834 68.8332 63.5834 68.8332C63.5834 68.8332 62.7084 62.7083 58.3334 62.7083Z" fill="#FFEB3A"/>
<path d="M7 42C6.99971 56.396 17.9158 68.4462 32.2417 69.8644C46.5677 71.2825 59.6345 61.6063 62.4567 47.4897C65.2789 33.3731 56.9367 19.4168 43.1667 15.218V14C43.1768 11.8355 42.3162 9.75774 40.7785 8.23433C40.1196 7.56842 39.3483 7.02416 38.5 6.62667V2.33333C38.5 1.04467 37.4553 0 36.1667 0H33.8333C32.5447 0 31.5 1.04467 31.5 2.33333V6.65C28.6532 7.99055 26.8356 10.8534 26.8333 14V15.218C15.0603 18.8242 7.01579 29.687 7 42ZM31.1173 16.9773C30.1521 18.763 29.4219 20.6661 28.945 22.6392C26.6919 22.9884 24.4773 23.5517 22.3312 24.3215C24.3471 20.952 27.4437 18.3636 31.1173 16.9773ZM28.371 25.095C27.7736 28.0806 27.3613 31.1002 27.1367 34.1367C24.1002 34.3613 21.0806 34.7736 18.095 35.371C18.5757 32.6696 19.399 30.0404 20.545 27.5473C23.0387 26.4003 25.6686 25.5762 28.371 25.095ZM52.5 42C52.499 43.3873 52.4211 44.7735 52.2667 46.1522C49.218 46.8167 46.1272 47.2704 43.0162 47.5102C43.1153 45.6925 43.1667 43.8457 43.1667 42C43.1667 40.1543 43.1153 38.3075 43.0173 36.4898C46.128 36.7297 49.2184 37.1834 52.2667 37.8478C52.4211 39.2265 52.499 40.6127 52.5 42ZM40.8333 42C40.8333 43.9872 40.7804 45.8788 40.6747 47.6747C38.8796 47.7804 36.988 47.8333 35 47.8333C33.012 47.8333 31.1204 47.7804 29.3253 47.6747C29.2196 45.8796 29.1667 43.988 29.1667 42C29.1667 40.012 29.2196 38.1204 29.3253 36.3253C31.1212 36.2196 33.0128 36.1667 35 36.1667C36.9872 36.1667 38.8788 36.2196 40.6747 36.3253C40.7804 38.1212 40.8333 40.0128 40.8333 42ZM40.5102 50.0173C40.2703 53.128 39.8166 56.2184 39.1522 59.2667C36.3927 59.5762 33.6073 59.5762 30.8478 59.2667C30.1833 56.218 29.7296 53.1272 29.4898 50.0162C31.3075 50.1153 33.1543 50.1667 35 50.1667C36.8457 50.1667 38.6925 50.1153 40.5102 50.0173ZM17.5 42C17.501 40.6127 17.5789 39.2265 17.7333 37.8478C20.782 37.1833 23.8728 36.7296 26.9838 36.4898C26.8847 38.3075 26.8333 40.1543 26.8333 42C26.8333 43.8457 26.8847 45.6925 26.9827 47.5102C23.872 47.2703 20.7816 46.8166 17.7333 46.1522C17.5789 44.7735 17.501 43.3873 17.5 42ZM35 33.8333C33.1543 33.8333 31.3075 33.8847 29.4898 33.9827C29.7297 30.872 30.1834 27.7816 30.8478 24.7333C33.6073 24.4238 36.3927 24.4238 39.1522 24.7333C39.8167 27.782 40.2704 30.8728 40.5102 33.9838C38.6925 33.8847 36.8457 33.8333 35 33.8333ZM15.6392 35.945C13.6661 36.4219 11.763 37.1521 9.97733 38.1173C11.3651 34.4428 13.9556 31.3461 17.3273 29.3312C16.5556 31.4771 15.9903 33.6917 15.6392 35.945ZM15.33 38.4638C15.2262 39.6235 15.1667 40.7972 15.1667 42C15.1667 43.2028 15.2262 44.3765 15.33 45.5362C11.4893 44.4243 9.33333 43.099 9.33333 42C9.33333 40.901 11.4893 39.5757 15.33 38.4638ZM15.6392 48.055C15.9884 50.3081 16.5517 52.5227 17.3215 54.6688C13.952 52.6529 11.3636 49.5563 9.97733 45.8827C11.763 46.8479 13.6661 47.5781 15.6392 48.055ZM18.095 48.629C21.0806 49.2264 24.1002 49.6387 27.1367 49.8633C27.3613 52.8998 27.7736 55.9194 28.371 58.905C25.6695 58.4243 23.0404 57.601 20.5473 56.455C19.4003 53.9613 18.5762 51.3314 18.095 48.629ZM28.945 61.3667C29.4219 63.3397 30.1521 65.2428 31.1173 67.0285C27.4428 65.6408 24.3461 63.0502 22.3312 59.6785C24.4771 60.4503 26.6917 61.0156 28.945 61.3667ZM31.4638 61.6758C32.6235 61.7797 33.7972 61.8392 35 61.8392C36.2028 61.8392 37.3765 61.7797 38.5362 61.6758C37.4243 65.5107 36.099 67.6667 35 67.6667C33.901 67.6667 32.5757 65.5107 31.4638 61.67V61.6758ZM38.8827 67.0285C39.8479 65.2428 40.5781 63.3397 41.055 61.3667C43.3081 61.0174 45.5227 60.4541 47.6688 59.6843C45.6519 63.0517 42.5555 65.6379 38.8827 67.0227V67.0285ZM41.629 58.9108C42.2264 55.9253 42.6387 52.9056 42.8633 49.8692C45.8998 49.6445 48.9194 49.2323 51.905 48.6348C51.4243 51.3363 50.601 53.9654 49.455 56.4585C46.961 57.6035 44.3311 58.4256 41.629 58.905V58.9108ZM54.3667 48.055C56.3397 47.5781 58.2428 46.8479 60.0285 45.8827C58.6408 49.5572 56.0502 52.6539 52.6785 54.6688C53.4503 52.5229 54.0156 50.3083 54.3667 48.055ZM54.6758 45.5362C54.7797 44.3765 54.8392 43.2028 54.8392 42C54.8392 40.7972 54.7797 39.6235 54.6758 38.4638C58.5107 39.5757 60.6667 40.901 60.6667 42C60.6667 43.099 58.5107 44.4243 54.67 45.5362H54.6758ZM54.3667 35.945C54.0174 33.6919 53.4541 31.4773 52.6843 29.3312C56.056 31.3461 58.6466 34.4428 60.0343 38.1173C58.2468 37.1516 56.3417 36.4215 54.3667 35.945ZM51.9167 35.371C48.9311 34.7736 45.9115 34.3613 42.875 34.1367C42.6503 31.1002 42.2381 28.0806 41.6407 25.095C44.3421 25.5757 46.9712 26.399 49.4643 27.545C50.6073 30.0393 51.4275 32.6692 51.905 35.371H51.9167ZM41.0667 22.6392C40.5897 20.6661 39.8596 18.763 38.8943 16.9773C42.5689 18.3651 45.6656 20.9556 47.6805 24.3273C45.5308 23.5548 43.3122 22.9896 41.055 22.6392H41.0667ZM38.5478 22.33C37.3882 22.2262 36.2145 22.1667 35.0117 22.1667C33.8088 22.1667 32.6352 22.2262 31.4755 22.33C32.5757 18.4893 33.901 16.3333 35 16.3333C36.099 16.3333 37.4243 18.4893 38.5362 22.33H38.5478ZM23.8 18.9128C21.7714 20.9251 20.0922 23.2613 18.8312 25.8253C16.2646 27.0875 13.9265 28.7688 11.9128 30.8C14.4395 25.6234 18.6234 21.4395 23.8 18.9128ZM11.9128 53.2058C13.9251 55.2344 16.2613 56.9137 18.8253 58.1747C20.0881 60.7392 21.7693 63.0753 23.8 65.0872C18.6244 62.562 14.4406 58.3802 11.9128 53.2058ZM46.2 65.0872C48.2286 63.0749 49.9078 60.7387 51.1688 58.1747C53.7329 56.9137 56.069 55.2344 58.0813 53.2058C55.5551 58.3793 51.3735 62.5609 46.2 65.0872ZM58.0872 30.8C56.0749 28.7714 53.7387 27.0922 51.1747 25.8312C49.9125 23.2646 48.2312 20.9265 46.2 18.9128C51.3766 21.4395 55.5605 25.6234 58.0872 30.8ZM33.8333 2.33333H36.1667V9.33333C36.1667 9.97767 35.6443 10.5 35 10.5C34.3557 10.5 33.8333 9.97767 33.8333 9.33333V2.33333ZM29.1667 14C29.1646 12.1634 30.0295 10.4337 31.5 9.33333C31.5 11.2663 33.067 12.8333 35 12.8333C36.933 12.8333 38.5 11.2663 38.5 9.33333C39.9734 10.4312 40.8391 12.1626 40.8333 14L40.8334 14.616C36.9878 13.7947 33.0122 13.7947 29.1667 14.616L29.1667 14Z" fill="black"/>
<path d="M5.83335 10.5C10.5782 10.5 11.6667 17.5957 11.6784 17.6668C11.7613 18.2409 12.2533 18.6668 12.8334 18.6667C13.4129 18.6662 13.9043 18.2404 13.9872 17.6668C14 17.5933 15.0675 10.5 19.8334 10.5C20.4777 10.5 21 9.97767 21 9.33333C21 8.689 20.4777 8.16667 19.8334 8.16667C15.0885 8.16667 14 1.071 13.9884 0.999833C13.9054 0.425786 13.4134 -0.000160791 12.8334 4.55334e-08C12.2538 0.000418914 11.7624 0.426224 11.6795 0.999833C11.6667 1.07333 10.5992 8.16667 5.83335 8.16667C5.18902 8.16667 4.66669 8.689 4.66669 9.33333C4.66669 9.97767 5.18902 10.5 5.83335 10.5ZM12.8334 5.21967C13.4963 6.85361 14.5922 8.27584 16.0032 9.33333C14.5922 10.3908 13.4963 11.8131 12.8334 13.447C12.1704 11.8131 11.0745 10.3908 9.66352 9.33333C11.0745 8.27584 12.1704 6.85361 12.8334 5.21967Z" fill="black"/>
<path d="M68.8333 61.5416C65.5294 61.5416 64.75 56.4666 64.7384 56.4176C64.6559 55.8431 64.1637 55.4165 63.5834 55.4166C63.0041 55.4163 62.5123 55.841 62.4283 56.4141C62.4167 56.4666 61.6374 61.5416 58.3334 61.5416C57.689 61.5416 57.1667 62.064 57.1667 62.7083C57.1667 63.3526 57.689 63.875 58.3334 63.875C61.6374 63.875 62.4167 68.95 62.4283 68.999C62.5108 69.5735 63.003 70.0001 63.5834 70C64.1626 70.0003 64.6544 69.5756 64.7384 69.0025C64.7454 68.9511 65.5294 63.8761 68.8333 63.8761C69.4777 63.8761 70 63.3538 70 62.7095C70 62.0651 69.4777 61.5428 68.8333 61.5428V61.5416ZM63.5834 65.1221C63.1282 64.1951 62.485 63.373 61.6945 62.7083C62.485 62.0436 63.1282 61.2215 63.5834 60.2945C64.0385 61.2215 64.6817 62.0436 65.4722 62.7083C64.6817 63.373 64.0385 64.1951 63.5834 65.1221Z" fill="black"/>
<path d="M1.16667 22.1667H3.5V24.5C3.5 25.1444 4.02233 25.6667 4.66667 25.6667C5.311 25.6667 5.83333 25.1444 5.83333 24.5V22.1667H8.16667C8.811 22.1667 9.33333 21.6444 9.33333 21C9.33333 20.3557 8.811 19.8334 8.16667 19.8334H5.83333V17.5C5.83333 16.8557 5.311 16.3334 4.66667 16.3334C4.02233 16.3334 3.5 16.8557 3.5 17.5V19.8334H1.16667C0.522334 19.8334 0 20.3557 0 21C0 21.6444 0.522334 22.1667 1.16667 22.1667Z" fill="black"/>
</svg>
